<svg width="40" height="40" viewBox="0 0 40 40" fill="none" xmlns="http://www.w3.org/2000/svg">
  <!-- Brain icon -->
  <path d="M12 8C10.9 8 10 8.9 10 10C10 10.5 10.2 11 10.5 11.3C9.6 12.1 9 13.2 9 14.5C9 15.3 9.2 16 9.6 16.6C8.6 17.4 8 18.6 8 20C8 22.2 9.8 24 12 24H16C18.2 24 20 22.2 20 20C20 18.6 19.4 17.4 18.4 16.6C18.8 16 19 15.3 19 14.5C19 13.2 18.4 12.1 17.5 11.3C17.8 11 18 10.5 18 10C18 8.9 17.1 8 16 8C15.4 8 14.9 8.3 14.6 8.7C14.4 8.3 14.1 8 13.7 8H12Z" fill="#667eea"/>
  
  <!-- Robot icon -->
  <path d="M22 12H30C31.1 12 32 12.9 32 14V28C32 29.1 31.1 30 30 30H22C20.9 30 20 29.1 20 28V14C20 12.9 20.9 12 22 12Z" fill="#764ba2"/>
  <circle cx="24" cy="17" r="1.5" fill="white"/>
  <circle cx="28" cy="17" r="1.5" fill="white"/>
  <rect x="23" y="21" width="6" height="2" rx="1" fill="white"/>
  <rect x="24" y="25" width="4" height="1" rx="0.5" fill="white"/>
  
  <!-- Connection lines -->
  <path d="M18 16L20 16" stroke="#8b5cf6" stroke-width="2" stroke-linecap="round"/>
  <path d="M18 20L20 20" stroke="#8b5cf6" stroke-width="2" stroke-linecap="round"/>
</svg>